<svg width="18" height="18" viewBox="0 0 18 18" fill="none" xmlns="http://www.w3.org/2000/svg">
<mask id="path-1-outside-1_10_49" maskUnits="userSpaceOnUse" x="-0.235001" y="0.224991" width="18" height="18" fill="black">
<rect fill="white" x="-0.235001" y="0.224991" width="18" height="18"/>
<path d="M11.765 9.90501C11.4875 9.90562 11.2108 9.87544 10.94 9.81501C11.0978 10.1561 11.2185 10.5131 11.3 10.88H11.765C12.2749 10.8794 12.7814 10.7967 13.265 10.635L12.8 9.73001C12.4646 9.83532 12.1164 9.8942 11.765 9.90501ZM9.18 8.93501L9 8.74501C8.60962 8.36334 8.30855 7.90001 8.11837 7.38825C7.92819 6.87649 7.85361 6.32898 7.9 5.78501C7.95076 5.05631 8.21899 4.3596 8.67 3.78501L8.63 4.50001C8.62949 4.62517 8.67595 4.74598 8.76019 4.83855C8.84444 4.93113 8.96034 4.98874 9.085 5.00001H9.13C9.25517 5.00051 9.37597 4.95406 9.46855 4.86981C9.56112 4.78557 9.61874 4.66967 9.63 4.54501L9.8 2.50001C9.80599 2.42758 9.79612 2.35473 9.77107 2.28651C9.74603 2.21829 9.70642 2.15635 9.655 2.10501C9.60027 2.06067 9.53679 2.0284 9.46872 2.0103C9.40065 1.99221 9.32952 1.9887 9.26 2.00001L7.215 2.17501C7.08239 2.18628 6.95969 2.24977 6.87389 2.3515C6.7881 2.45324 6.74623 2.5849 6.7575 2.71751C6.76877 2.85011 6.83226 2.97281 6.934 3.05861C7.03574 3.14441 7.16739 3.18628 7.3 3.17501L7.945 3.12001C7.33763 3.88 6.97967 4.80896 6.92 5.78001C6.86833 6.44548 6.96085 7.11428 7.19125 7.74074C7.42164 8.36719 7.78448 8.93657 8.255 9.41001L8.41 9.59501C9.04893 10.2553 9.41654 11.1315 9.44 12.05C9.46655 12.4661 9.4226 12.8836 9.31 13.285L10.21 13.74C10.4031 13.1763 10.4796 12.5792 10.435 11.985C10.4043 10.849 9.95773 9.76367 9.18 8.93501ZM16.2 8.95501L15.595 9.00001C16.1471 8.28549 16.4875 7.4304 16.5777 6.53197C16.6679 5.63354 16.5042 4.72783 16.1052 3.91783C15.7062 3.10783 15.0879 2.42605 14.3207 1.95001C13.5534 1.47397 12.6679 1.22278 11.765 1.22501C11.2549 1.22385 10.7482 1.30662 10.265 1.47001L10.72 2.37001C11.2908 2.20835 11.8914 2.18132 12.4744 2.29106C13.0574 2.4008 13.607 2.64431 14.08 3.00244C14.553 3.36057 14.9364 3.82355 15.2002 4.35496C15.4639 4.88638 15.6008 5.47174 15.6 6.06501C15.5998 6.92234 15.309 7.75429 14.775 8.42501L14.825 7.65501C14.8293 7.58934 14.8206 7.52349 14.7994 7.46119C14.7782 7.39889 14.7449 7.34138 14.7015 7.29193C14.6581 7.24249 14.6054 7.20207 14.5464 7.173C14.4873 7.14393 14.4232 7.12677 14.3575 7.12251C14.2918 7.11824 14.226 7.12694 14.1637 7.14813C14.1014 7.16931 14.0439 7.20256 13.9944 7.24597C13.945 7.28938 13.9046 7.34211 13.8755 7.40114C13.8464 7.46017 13.8293 7.52434 13.825 7.59001L13.685 9.63001C13.681 9.70236 13.6928 9.77471 13.7196 9.84206C13.7464 9.9094 13.7874 9.97011 13.84 10.02C13.8849 10.0656 13.9387 10.1016 13.998 10.1256C14.0574 10.1497 14.121 10.1614 14.185 10.16H14.235L16.275 9.95001C16.3408 9.94376 16.4047 9.92453 16.463 9.89344C16.5213 9.86235 16.5729 9.82001 16.6147 9.76886C16.6566 9.71772 16.6879 9.65879 16.7068 9.59548C16.7257 9.53216 16.7319 9.46573 16.725 9.40001C16.7111 9.27271 16.6489 9.1556 16.5512 9.07281C16.4536 8.99001 16.3278 8.94785 16.2 8.95501ZM2.035 10.22H2.075L4.12 10.045C4.18566 10.0394 4.24958 10.021 4.30811 9.99068C4.36663 9.9604 4.41862 9.91888 4.4611 9.86851C4.50359 9.81813 4.53573 9.75988 4.5557 9.69708C4.57567 9.63428 4.58308 9.56817 4.5775 9.50251C4.57192 9.43684 4.55346 9.37293 4.52318 9.3144C4.49289 9.25587 4.45138 9.20388 4.401 9.1614C4.35063 9.11892 4.29238 9.08677 4.22958 9.0668C4.16678 9.04683 4.10066 9.03942 4.035 9.04501L3.34 9.105C3.99463 8.62207 4.7865 8.36103 5.6 8.36C5.87403 8.36201 6.14713 8.39217 6.415 8.45001C6.25784 8.10915 6.13878 7.75199 6.06 7.38501H5.6C4.53322 7.38341 3.49592 7.73504 2.65 8.38501L2.71 7.73001C2.71547 7.6643 2.70789 7.59817 2.68769 7.5354C2.6675 7.47264 2.6351 7.41449 2.59234 7.3643C2.54959 7.31412 2.49733 7.27288 2.43858 7.24296C2.37983 7.21305 2.31574 7.19505 2.25 7.19001C2.11809 7.17892 1.98718 7.22059 1.88595 7.30588C1.78472 7.39118 1.72145 7.51313 1.71 7.64501L1.535 9.68501C1.52947 9.75395 1.5383 9.8233 1.56093 9.88865C1.58357 9.95401 1.61952 10.014 1.66652 10.0647C1.71351 10.1155 1.77052 10.1559 1.83395 10.1835C1.89737 10.2111 1.96583 10.2252 2.035 10.225V10.22ZM9.21 14.115L7.165 14.25C7.03239 14.2586 6.90864 14.3196 6.82097 14.4194C6.73329 14.5193 6.68888 14.6499 6.6975 14.7825C6.70612 14.9151 6.76706 15.0389 6.86693 15.1265C6.96679 15.2142 7.09739 15.2586 7.23 15.25L8 15.195C7.43374 15.6501 6.7504 15.936 6.02874 16.0196C5.30708 16.1032 4.57648 15.9812 3.92115 15.6677C3.26581 15.3541 2.71242 14.8617 2.32474 14.2473C1.93707 13.6329 1.7309 12.9215 1.73 12.195C1.7336 11.8567 1.78237 11.5204 1.875 11.195L0.999999 10.73C0.845182 11.2064 0.765889 11.7041 0.764999 12.205C0.770866 13.1105 1.03012 13.9963 1.51341 14.7621C1.9967 15.5279 2.68472 16.143 3.49959 16.538C4.31445 16.9329 5.22361 17.0919 6.12413 16.9968C7.02466 16.9017 7.88058 16.5564 8.595 16L8.535 16.59C8.52807 16.6553 8.53409 16.7214 8.5527 16.7844C8.57132 16.8474 8.60218 16.9062 8.64351 16.9572C8.68483 17.0083 8.73582 17.0508 8.79356 17.0821C8.8513 17.1135 8.91465 17.1331 8.98 17.14H9.035C9.15938 17.1406 9.27953 17.0949 9.37199 17.0117C9.46444 16.9285 9.52256 16.8138 9.535 16.69L9.745 14.66C9.75243 14.5877 9.74398 14.5146 9.72026 14.4458C9.69654 14.3771 9.65811 14.3144 9.60765 14.262C9.55719 14.2096 9.49592 14.1689 9.4281 14.1427C9.36029 14.1164 9.28756 14.1053 9.215 14.11L9.21 14.115Z"/>
</mask>
<path d="M11.765 9.90501C11.4875 9.90562 11.2108 9.87544 10.94 9.81501C11.0978 10.1561 11.2185 10.5131 11.3 10.88H11.765C12.2749 10.8794 12.7814 10.7967 13.265 10.635L12.8 9.73001C12.4646 9.83532 12.1164 9.8942 11.765 9.90501ZM9.18 8.93501L9 8.74501C8.60962 8.36334 8.30855 7.90001 8.11837 7.38825C7.92819 6.87649 7.85361 6.32898 7.9 5.78501C7.95076 5.05631 8.21899 4.3596 8.67 3.78501L8.63 4.50001C8.62949 4.62517 8.67595 4.74598 8.76019 4.83855C8.84444 4.93113 8.96034 4.98874 9.085 5.00001H9.13C9.25517 5.00051 9.37597 4.95406 9.46855 4.86981C9.56112 4.78557 9.61874 4.66967 9.63 4.54501L9.8 2.50001C9.80599 2.42758 9.79612 2.35473 9.77107 2.28651C9.74603 2.21829 9.70642 2.15635 9.655 2.10501C9.60027 2.06067 9.53679 2.0284 9.46872 2.0103C9.40065 1.99221 9.32952 1.9887 9.26 2.00001L7.215 2.17501C7.08239 2.18628 6.95969 2.24977 6.87389 2.3515C6.7881 2.45324 6.74623 2.5849 6.7575 2.71751C6.76877 2.85011 6.83226 2.97281 6.934 3.05861C7.03574 3.14441 7.16739 3.18628 7.3 3.17501L7.945 3.12001C7.33763 3.88 6.97967 4.80896 6.92 5.78001C6.86833 6.44548 6.96085 7.11428 7.19125 7.74074C7.42164 8.36719 7.78448 8.93657 8.255 9.41001L8.41 9.59501C9.04893 10.2553 9.41654 11.1315 9.44 12.05C9.46655 12.4661 9.4226 12.8836 9.31 13.285L10.21 13.74C10.4031 13.1763 10.4796 12.5792 10.435 11.985C10.4043 10.849 9.95773 9.76367 9.18 8.93501ZM16.2 8.95501L15.595 9.00001C16.1471 8.28549 16.4875 7.4304 16.5777 6.53197C16.6679 5.63354 16.5042 4.72783 16.1052 3.91783C15.7062 3.10783 15.0879 2.42605 14.3207 1.95001C13.5534 1.47397 12.6679 1.22278 11.765 1.22501C11.2549 1.22385 10.7482 1.30662 10.265 1.47001L10.72 2.37001C11.2908 2.20835 11.8914 2.18132 12.4744 2.29106C13.0574 2.4008 13.607 2.64431 14.08 3.00244C14.553 3.36057 14.9364 3.82355 15.2002 4.35496C15.4639 4.88638 15.6008 5.47174 15.6 6.06501C15.5998 6.92234 15.309 7.75429 14.775 8.42501L14.825 7.65501C14.8293 7.58934 14.8206 7.52349 14.7994 7.46119C14.7782 7.39889 14.7449 7.34138 14.7015 7.29193C14.6581 7.24249 14.6054 7.20207 14.5464 7.173C14.4873 7.14393 14.4232 7.12677 14.3575 7.12251C14.2918 7.11824 14.226 7.12694 14.1637 7.14813C14.1014 7.16931 14.0439 7.20256 13.9944 7.24597C13.945 7.28938 13.9046 7.34211 13.8755 7.40114C13.8464 7.46017 13.8293 7.52434 13.825 7.59001L13.685 9.63001C13.681 9.70236 13.6928 9.77471 13.7196 9.84206C13.7464 9.9094 13.7874 9.97011 13.84 10.02C13.8849 10.0656 13.9387 10.1016 13.998 10.1256C14.0574 10.1497 14.121 10.1614 14.185 10.16H14.235L16.275 9.95001C16.3408 9.94376 16.4047 9.92453 16.463 9.89344C16.5213 9.86235 16.5729 9.82001 16.6147 9.76886C16.6566 9.71772 16.6879 9.65879 16.7068 9.59548C16.7257 9.53216 16.7319 9.46573 16.725 9.40001C16.7111 9.27271 16.6489 9.1556 16.5512 9.07281C16.4536 8.99001 16.3278 8.94785 16.2 8.95501ZM2.035 10.22H2.075L4.12 10.045C4.18566 10.0394 4.24958 10.021 4.30811 9.99068C4.36663 9.9604 4.41862 9.91888 4.4611 9.86851C4.50359 9.81813 4.53573 9.75988 4.5557 9.69708C4.57567 9.63428 4.58308 9.56817 4.5775 9.50251C4.57192 9.43684 4.55346 9.37293 4.52318 9.3144C4.49289 9.25587 4.45138 9.20388 4.401 9.1614C4.35063 9.11892 4.29238 9.08677 4.22958 9.0668C4.16678 9.04683 4.10066 9.03942 4.035 9.04501L3.34 9.105C3.99463 8.62207 4.7865 8.36103 5.6 8.36C5.87403 8.36201 6.14713 8.39217 6.415 8.45001C6.25784 8.10915 6.13878 7.75199 6.06 7.38501H5.6C4.53322 7.38341 3.49592 7.73504 2.65 8.38501L2.71 7.73001C2.71547 7.6643 2.70789 7.59817 2.68769 7.5354C2.6675 7.47264 2.6351 7.41449 2.59234 7.3643C2.54959 7.31412 2.49733 7.27288 2.43858 7.24296C2.37983 7.21305 2.31574 7.19505 2.25 7.19001C2.11809 7.17892 1.98718 7.22059 1.88595 7.30588C1.78472 7.39118 1.72145 7.51313 1.71 7.64501L1.535 9.68501C1.52947 9.75395 1.5383 9.8233 1.56093 9.88865C1.58357 9.95401 1.61952 10.014 1.66652 10.0647C1.71351 10.1155 1.77052 10.1559 1.83395 10.1835C1.89737 10.2111 1.96583 10.2252 2.035 10.225V10.22ZM9.21 14.115L7.165 14.25C7.03239 14.2586 6.90864 14.3196 6.82097 14.4194C6.73329 14.5193 6.68888 14.6499 6.6975 14.7825C6.70612 14.9151 6.76706 15.0389 6.86693 15.1265C6.96679 15.2142 7.09739 15.2586 7.23 15.25L8 15.195C7.43374 15.6501 6.7504 15.936 6.02874 16.0196C5.30708 16.1032 4.57648 15.9812 3.92115 15.6677C3.26581 15.3541 2.71242 14.8617 2.32474 14.2473C1.93707 13.6329 1.7309 12.9215 1.73 12.195C1.7336 11.8567 1.78237 11.5204 1.875 11.195L0.999999 10.73C0.845182 11.2064 0.765889 11.7041 0.764999 12.205C0.770866 13.1105 1.03012 13.9963 1.51341 14.7621C1.9967 15.5279 2.68472 16.143 3.49959 16.538C4.31445 16.9329 5.22361 17.0919 6.12413 16.9968C7.02466 16.9017 7.88058 16.5564 8.595 16L8.535 16.59C8.52807 16.6553 8.53409 16.7214 8.5527 16.7844C8.57132 16.8474 8.60218 16.9062 8.64351 16.9572C8.68483 17.0083 8.73582 17.0508 8.79356 17.0821C8.8513 17.1135 8.91465 17.1331 8.98 17.14H9.035C9.15938 17.1406 9.27953 17.0949 9.37199 17.0117C9.46444 16.9285 9.52256 16.8138 9.535 16.69L9.745 14.66C9.75243 14.5877 9.74398 14.5146 9.72026 14.4458C9.69654 14.3771 9.65811 14.3144 9.60765 14.262C9.55719 14.2096 9.49592 14.1689 9.4281 14.1427C9.36029 14.1164 9.28756 14.1053 9.215 14.11L9.21 14.115Z" fill="black"/>
<path d="M11.765 9.90501C11.4875 9.90562 11.2108 9.87544 10.94 9.81501C11.0978 10.1561 11.2185 10.5131 11.3 10.88H11.765C12.2749 10.8794 12.7814 10.7967 13.265 10.635L12.8 9.73001C12.4646 9.83532 12.1164 9.8942 11.765 9.90501ZM9.18 8.93501L9 8.74501C8.60962 8.36334 8.30855 7.90001 8.11837 7.38825C7.92819 6.87649 7.85361 6.32898 7.9 5.78501C7.95076 5.05631 8.21899 4.3596 8.67 3.78501L8.63 4.50001C8.62949 4.62517 8.67595 4.74598 8.76019 4.83855C8.84444 4.93113 8.96034 4.98874 9.085 5.00001H9.13C9.25517 5.00051 9.37597 4.95406 9.46855 4.86981C9.56112 4.78557 9.61874 4.66967 9.63 4.54501L9.8 2.50001C9.80599 2.42758 9.79612 2.35473 9.77107 2.28651C9.74603 2.21829 9.70642 2.15635 9.655 2.10501C9.60027 2.06067 9.53679 2.0284 9.46872 2.0103C9.40065 1.99221 9.32952 1.9887 9.26 2.00001L7.215 2.17501C7.08239 2.18628 6.95969 2.24977 6.87389 2.3515C6.7881 2.45324 6.74623 2.5849 6.7575 2.71751C6.76877 2.85011 6.83226 2.97281 6.934 3.05861C7.03574 3.14441 7.16739 3.18628 7.3 3.17501L7.945 3.12001C7.33763 3.88 6.97967 4.80896 6.92 5.78001C6.86833 6.44548 6.96085 7.11428 7.19125 7.74074C7.42164 8.36719 7.78448 8.93657 8.255 9.41001L8.41 9.59501C9.04893 10.2553 9.41654 11.1315 9.44 12.05C9.46655 12.4661 9.4226 12.8836 9.31 13.285L10.21 13.74C10.4031 13.1763 10.4796 12.5792 10.435 11.985C10.4043 10.849 9.95773 9.76367 9.18 8.93501ZM16.2 8.95501L15.595 9.00001C16.1471 8.28549 16.4875 7.4304 16.5777 6.53197C16.6679 5.63354 16.5042 4.72783 16.1052 3.91783C15.7062 3.10783 15.0879 2.42605 14.3207 1.95001C13.5534 1.47397 12.6679 1.22278 11.765 1.22501C11.2549 1.22385 10.7482 1.30662 10.265 1.47001L10.72 2.37001C11.2908 2.20835 11.8914 2.18132 12.4744 2.29106C13.0574 2.4008 13.607 2.64431 14.08 3.00244C14.553 3.36057 14.9364 3.82355 15.2002 4.35496C15.4639 4.88638 15.6008 5.47174 15.6 6.06501C15.5998 6.92234 15.309 7.75429 14.775 8.42501L14.825 7.65501C14.8293 7.58934 14.8206 7.52349 14.7994 7.46119C14.7782 7.39889 14.7449 7.34138 14.7015 7.29193C14.6581 7.24249 14.6054 7.20207 14.5464 7.173C14.4873 7.14393 14.4232 7.12677 14.3575 7.12251C14.2918 7.11824 14.226 7.12694 14.1637 7.14813C14.1014 7.16931 14.0439 7.20256 13.9944 7.24597C13.945 7.28938 13.9046 7.34211 13.8755 7.40114C13.8464 7.46017 13.8293 7.52434 13.825 7.59001L13.685 9.63001C13.681 9.70236 13.6928 9.77471 13.7196 9.84206C13.7464 9.9094 13.7874 9.97011 13.84 10.02C13.8849 10.0656 13.9387 10.1016 13.998 10.1256C14.0574 10.1497 14.121 10.1614 14.185 10.16H14.235L16.275 9.95001C16.3408 9.94376 16.4047 9.92453 16.463 9.89344C16.5213 9.86235 16.5729 9.82001 16.6147 9.76886C16.6566 9.71772 16.6879 9.65879 16.7068 9.59548C16.7257 9.53216 16.7319 9.46573 16.725 9.40001C16.7111 9.27271 16.6489 9.1556 16.5512 9.07281C16.4536 8.99001 16.3278 8.94785 16.2 8.95501ZM2.035 10.22H2.075L4.12 10.045C4.18566 10.0394 4.24958 10.021 4.30811 9.99068C4.36663 9.9604 4.41862 9.91888 4.4611 9.86851C4.50359 9.81813 4.53573 9.75988 4.5557 9.69708C4.57567 9.63428 4.58308 9.56817 4.5775 9.50251C4.57192 9.43684 4.55346 9.37293 4.52318 9.3144C4.49289 9.25587 4.45138 9.20388 4.401 9.1614C4.35063 9.11892 4.29238 9.08677 4.22958 9.0668C4.16678 9.04683 4.10066 9.03942 4.035 9.04501L3.34 9.105C3.99463 8.62207 4.7865 8.36103 5.6 8.36C5.87403 8.36201 6.14713 8.39217 6.415 8.45001C6.25784 8.10915 6.13878 7.75199 6.06 7.38501H5.6C4.53322 7.38341 3.49592 7.73504 2.65 8.38501L2.71 7.73001C2.71547 7.6643 2.70789 7.59817 2.68769 7.5354C2.6675 7.47264 2.6351 7.41449 2.59234 7.3643C2.54959 7.31412 2.49733 7.27288 2.43858 7.24296C2.37983 7.21305 2.31574 7.19505 2.25 7.19001C2.11809 7.17892 1.98718 7.22059 1.88595 7.30588C1.78472 7.39118 1.72145 7.51313 1.71 7.64501L1.535 9.68501C1.52947 9.75395 1.5383 9.8233 1.56093 9.88865C1.58357 9.95401 1.61952 10.014 1.66652 10.0647C1.71351 10.1155 1.77052 10.1559 1.83395 10.1835C1.89737 10.2111 1.96583 10.2252 2.035 10.225V10.22ZM9.21 14.115L7.165 14.25C7.03239 14.2586 6.90864 14.3196 6.82097 14.4194C6.73329 14.5193 6.68888 14.6499 6.6975 14.7825C6.70612 14.9151 6.76706 15.0389 6.86693 15.1265C6.96679 15.2142 7.09739 15.2586 7.23 15.25L8 15.195C7.43374 15.6501 6.7504 15.936 6.02874 16.0196C5.30708 16.1032 4.57648 15.9812 3.92115 15.6677C3.26581 15.3541 2.71242 14.8617 2.32474 14.2473C1.93707 13.6329 1.7309 12.9215 1.73 12.195C1.7336 11.8567 1.78237 11.5204 1.875 11.195L0.999999 10.73C0.845182 11.2064 0.765889 11.7041 0.764999 12.205C0.770866 13.1105 1.03012 13.9963 1.51341 14.7621C1.9967 15.5279 2.68472 16.143 3.49959 16.538C4.31445 16.9329 5.22361 17.0919 6.12413 16.9968C7.02466 16.9017 7.88058 16.5564 8.595 16L8.535 16.59C8.52807 16.6553 8.53409 16.7214 8.5527 16.7844C8.57132 16.8474 8.60218 16.9062 8.64351 16.9572C8.68483 17.0083 8.73582 17.0508 8.79356 17.0821C8.8513 17.1135 8.91465 17.1331 8.98 17.14H9.035C9.15938 17.1406 9.27953 17.0949 9.37199 17.0117C9.46444 16.9285 9.52256 16.8138 9.535 16.69L9.745 14.66C9.75243 14.5877 9.74398 14.5146 9.72026 14.4458C9.69654 14.3771 9.65811 14.3144 9.60765 14.262C9.55719 14.2096 9.49592 14.1689 9.4281 14.1427C9.36029 14.1164 9.28756 14.1053 9.215 14.11L9.21 14.115Z" stroke="black" stroke-width="0.2" mask="url(#path-1-outside-1_10_49)"/>
</svg>
