<svg width="24" height="24" viewBox="0 0 24 24" fill="none" xmlns="http://www.w3.org/2000/svg">
<mask id="path-1-outside-1_10_52" maskUnits="userSpaceOnUse" x="2" y="4" width="20" height="16" fill="black">
<rect fill="white" x="2" y="4" width="20" height="16"/>
<path d="M4.616 19C4.15533 19 3.771 18.846 3.463 18.538C3.155 18.23 3.00067 17.8453 3 17.384V6.616C3 6.15533 3.15433 5.771 3.463 5.463C3.77167 5.155 4.15567 5.00067 4.615 5H19.385C19.845 5 20.229 5.15433 20.537 5.463C20.845 5.77167 20.9993 6.156 21 6.616V17.385C21 17.845 20.8457 18.2293 20.537 18.538C20.2283 18.8467 19.8443 19.0007 19.385 19H4.616ZM4.616 18H19.385C19.5383 18 19.6793 17.936 19.808 17.808C19.9367 17.68 20.0007 17.5387 20 17.384V8H4V17.385C4 17.5383 4.064 17.6793 4.192 17.808C4.32 17.9367 4.461 18.0007 4.615 18M9.387 13L7.14 10.754C7.04267 10.6567 6.99167 10.5387 6.987 10.4C6.98233 10.2613 7.03567 10.1433 7.147 10.046C7.24367 9.95267 7.36133 9.90833 7.5 9.913C7.63867 9.91767 7.75667 9.96867 7.854 10.066L10.223 12.435C10.3843 12.5963 10.465 12.7847 10.465 13C10.465 13.2153 10.3843 13.404 10.223 13.566L7.834 15.954C7.74067 16.0473 7.62733 16.092 7.494 16.088C7.36067 16.084 7.24467 16.033 7.146 15.935C7.05267 15.8417 7.006 15.73 7.006 15.6C7.006 15.47 7.05267 15.3587 7.146 15.266L9.387 13ZM13 16.5C12.858 16.5 12.739 16.4523 12.643 16.357C12.547 16.2617 12.4993 16.1427 12.5 16C12.5007 15.8573 12.5483 15.7383 12.643 15.643C12.7377 15.5477 12.8567 15.5 13 15.5H17C17.1427 15.5 17.2617 15.5477 17.357 15.643C17.4523 15.7383 17.5 15.8573 17.5 16C17.5 16.1427 17.4523 16.2617 17.357 16.357C17.2617 16.4523 17.1427 16.5 17 16.5H13Z"/>
</mask>
<path d="M4.616 19C4.15533 19 3.771 18.846 3.463 18.538C3.155 18.23 3.00067 17.8453 3 17.384V6.616C3 6.15533 3.15433 5.771 3.463 5.463C3.77167 5.155 4.15567 5.00067 4.615 5H19.385C19.845 5 20.229 5.15433 20.537 5.463C20.845 5.77167 20.9993 6.156 21 6.616V17.385C21 17.845 20.8457 18.2293 20.537 18.538C20.2283 18.8467 19.8443 19.0007 19.385 19H4.616ZM4.616 18H19.385C19.5383 18 19.6793 17.936 19.808 17.808C19.9367 17.68 20.0007 17.5387 20 17.384V8H4V17.385C4 17.5383 4.064 17.6793 4.192 17.808C4.32 17.9367 4.461 18.0007 4.615 18M9.387 13L7.14 10.754C7.04267 10.6567 6.99167 10.5387 6.987 10.4C6.98233 10.2613 7.03567 10.1433 7.147 10.046C7.24367 9.95267 7.36133 9.90833 7.5 9.913C7.63867 9.91767 7.75667 9.96867 7.854 10.066L10.223 12.435C10.3843 12.5963 10.465 12.7847 10.465 13C10.465 13.2153 10.3843 13.404 10.223 13.566L7.834 15.954C7.74067 16.0473 7.62733 16.092 7.494 16.088C7.36067 16.084 7.24467 16.033 7.146 15.935C7.05267 15.8417 7.006 15.73 7.006 15.6C7.006 15.47 7.05267 15.3587 7.146 15.266L9.387 13ZM13 16.5C12.858 16.5 12.739 16.4523 12.643 16.357C12.547 16.2617 12.4993 16.1427 12.5 16C12.5007 15.8573 12.5483 15.7383 12.643 15.643C12.7377 15.5477 12.8567 15.5 13 15.5H17C17.1427 15.5 17.2617 15.5477 17.357 15.643C17.4523 15.7383 17.5 15.8573 17.5 16C17.5 16.1427 17.4523 16.2617 17.357 16.357C17.2617 16.4523 17.1427 16.5 17 16.5H13Z" fill="black"/>
<path d="M3 17.384H2.8L2.8 17.3843L3 17.384ZM4.615 5V4.8L4.61471 4.8L4.615 5ZM21 6.616H21.2L21.2 6.61571L21 6.616ZM19.385 19L19.3853 18.8H19.385V19ZM20 17.384H19.8L19.8 17.3849L20 17.384ZM20 8H20.2V7.8H20V8ZM4 8V7.8H3.8V8H4ZM9.387 13L9.5292 13.1406L9.66909 12.9992L9.52839 12.8585L9.387 13ZM7.14 10.754L6.99858 10.8954L6.99861 10.8955L7.14 10.754ZM7.147 10.046L7.2788 10.1968L7.28592 10.1899L7.147 10.046ZM7.854 10.066L7.99542 9.92458V9.92458L7.854 10.066ZM10.223 12.435L10.0816 12.5764V12.5764L10.223 12.435ZM10.223 13.566L10.3644 13.7075L10.3647 13.7071L10.223 13.566ZM7.834 15.954L7.69261 15.8125L7.69258 15.8126L7.834 15.954ZM7.146 15.935L7.00458 16.0764L7.00506 16.0769L7.146 15.935ZM7.146 15.266L7.28692 15.4079L7.2882 15.4066L7.146 15.266ZM4.616 19V18.8C4.20498 18.8 3.87258 18.6647 3.60442 18.3966L3.463 18.538L3.32158 18.6794C3.66942 19.0273 4.10568 19.2 4.616 19.2V19ZM3.463 18.538L3.60442 18.3966C3.33624 18.1284 3.20059 17.7956 3.2 17.3837L3 17.384L2.8 17.3843C2.80074 17.8951 2.97376 18.3316 3.32158 18.6794L3.463 18.538ZM3 17.384H3.2V6.616H3H2.8V17.384H3ZM3 6.616H3.2C3.2 6.20512 3.3355 5.87276 3.60427 5.60457L3.463 5.463L3.32173 5.32143C2.97317 5.66924 2.8 6.10555 2.8 6.616H3ZM3.463 5.463L3.60427 5.60457C3.87335 5.33608 4.20569 5.20059 4.61529 5.2L4.615 5L4.61471 4.8C4.10564 4.80074 3.66999 4.97392 3.32173 5.32143L3.463 5.463ZM4.615 5V5.2H19.385V5V4.8H4.615V5ZM19.385 5V5.2C19.7951 5.2 20.1272 5.33544 20.3954 5.60427L20.537 5.463L20.6786 5.32173C20.3308 4.97323 19.8949 4.8 19.385 4.8V5ZM20.537 5.463L20.3954 5.60427C20.6639 5.87329 20.7994 6.20593 20.8 6.61629L21 6.616L21.2 6.61571C21.1993 6.10607 21.0261 5.67004 20.6786 5.32173L20.537 5.463ZM21 6.616H20.8V17.385H21H21.2V6.616H21ZM21 17.385H20.8C20.8 17.7951 20.6646 18.1276 20.3956 18.3966L20.537 18.538L20.6784 18.6794C21.0268 18.3311 21.2 17.8949 21.2 17.385H21ZM20.537 18.538L20.3956 18.3966C20.1266 18.6655 19.7946 18.8006 19.3853 18.8L19.385 19L19.3847 19.2C19.8941 19.2007 20.33 19.0278 20.6784 18.6794L20.537 18.538ZM19.385 19V18.8H4.616V19V19.2H19.385V19ZM4.616 18V18.2H19.385V18V17.8H4.616V18ZM19.385 18V18.2C19.6008 18.2 19.7903 18.1077 19.9491 17.9498L19.808 17.808L19.6669 17.6662C19.5684 17.7643 19.4759 17.8 19.385 17.8V18ZM19.808 17.808L19.9491 17.9498C20.1086 17.7911 20.2009 17.6006 20.2 17.3831L20 17.384L19.8 17.3849C19.8004 17.4768 19.7648 17.5689 19.6669 17.6662L19.808 17.808ZM20 17.384H20.2V8H20H19.8V17.384H20ZM20 8V7.8H4V8V8.2H20V8ZM4 8H3.8V17.385H4H4.2V8H4ZM4 17.385H3.8C3.8 17.6008 3.89228 17.7903 4.05021 17.9491L4.192 17.808L4.33379 17.6669C4.23572 17.5684 4.2 17.4759 4.2 17.385H4ZM4.192 17.808L4.05021 17.9491C4.20869 18.1084 4.39885 18.2009 4.61587 18.2L4.615 18L4.61413 17.8C4.52315 17.8004 4.43131 17.765 4.33379 17.6669L4.192 17.808ZM9.387 13L9.52839 12.8585L7.28139 10.6125L7.14 10.754L6.99861 10.8955L9.24561 13.1415L9.387 13ZM7.14 10.754L7.28142 10.6126C7.22027 10.5514 7.18986 10.4817 7.18689 10.3933L6.987 10.4L6.78711 10.4067C6.79347 10.5956 6.86507 10.7619 6.99858 10.8954L7.14 10.754ZM6.987 10.4L7.18689 10.3933C7.18439 10.319 7.2091 10.2574 7.27864 10.1966L7.147 10.046L7.01536 9.89543C6.86223 10.0293 6.78028 10.2036 6.78711 10.4067L6.987 10.4ZM7.147 10.046L7.28592 10.1899C7.34222 10.1355 7.40675 10.11 7.49327 10.1129L7.5 9.913L7.50673 9.71311C7.31591 9.70669 7.14511 9.76981 7.00808 9.90212L7.147 10.046ZM7.5 9.913L7.49327 10.1129C7.5817 10.1159 7.65142 10.1463 7.71258 10.2074L7.854 10.066L7.99542 9.92458C7.86191 9.79107 7.69563 9.71947 7.50673 9.71311L7.5 9.913ZM7.854 10.066L7.71258 10.2074L10.0816 12.5764L10.223 12.435L10.3644 12.2936L7.99542 9.92458L7.854 10.066ZM10.223 12.435L10.0816 12.5764C10.2079 12.7027 10.265 12.8411 10.265 13H10.465H10.665C10.665 12.7282 10.5608 12.4899 10.3644 12.2936L10.223 12.435ZM10.465 13H10.265C10.265 13.1589 10.2078 13.2978 10.0813 13.4249L10.223 13.566L10.3647 13.7071C10.5608 13.5102 10.665 13.2717 10.665 13H10.465ZM10.223 13.566L10.0816 13.4245L7.69261 15.8125L7.834 15.954L7.97539 16.0955L10.3644 13.7075L10.223 13.566ZM7.834 15.954L7.69258 15.8126C7.63869 15.8665 7.5789 15.8905 7.5 15.8881L7.494 16.088L7.488 16.2879C7.67577 16.2935 7.84264 16.2282 7.97542 16.0954L7.834 15.954ZM7.494 16.088L7.5 15.8881C7.4197 15.8857 7.3513 15.857 7.28694 15.7931L7.146 15.935L7.00506 16.0769C7.13803 16.209 7.30163 16.2823 7.488 16.2879L7.494 16.088ZM7.146 15.935L7.28742 15.7936C7.23095 15.7371 7.206 15.6761 7.206 15.6H7.006H6.806C6.806 15.7839 6.87438 15.9462 7.00458 16.0764L7.146 15.935ZM7.006 15.6H7.206C7.206 15.524 7.2309 15.4635 7.28691 15.4079L7.146 15.266L7.00509 15.1241C6.87443 15.2538 6.806 15.416 6.806 15.6H7.006ZM7.146 15.266L7.2882 15.4066L9.5292 13.1406L9.387 13L9.2448 12.8594L7.0038 15.1254L7.146 15.266ZM13 16.5V16.3C12.9079 16.3 12.8404 16.2712 12.7839 16.2151L12.643 16.357L12.5021 16.4989C12.6376 16.6335 12.8081 16.7 13 16.7V16.5ZM12.643 16.357L12.7839 16.2151C12.7282 16.1598 12.6996 16.0933 12.7 16.0009L12.5 16L12.3 15.9991C12.2991 16.1921 12.3658 16.3636 12.5021 16.4989L12.643 16.357ZM12.5 16L12.7 16.0009C12.7004 15.9071 12.7297 15.8395 12.7849 15.7839L12.643 15.643L12.5011 15.5021C12.367 15.6371 12.3009 15.8075 12.3 15.9991L12.5 16ZM12.643 15.643L12.7849 15.7839C12.8393 15.7291 12.906 15.7 13 15.7V15.5V15.3C12.8073 15.3 12.636 15.3662 12.5011 15.5021L12.643 15.643ZM13 15.5V15.7H17V15.5V15.3H13V15.5ZM17 15.5V15.7C17.0931 15.7 17.1601 15.729 17.2156 15.7844L17.357 15.643L17.4984 15.5016C17.3632 15.3664 17.1923 15.3 17 15.3V15.5ZM17.357 15.643L17.2156 15.7844C17.271 15.8399 17.3 15.9069 17.3 16H17.5H17.7C17.7 15.8077 17.6336 15.6368 17.4984 15.5016L17.357 15.643ZM17.5 16H17.3C17.3 16.0931 17.271 16.1601 17.2156 16.2156L17.357 16.357L17.4984 16.4984C17.6336 16.3632 17.7 16.1923 17.7 16H17.5ZM17.357 16.357L17.2156 16.2156C17.1601 16.271 17.0931 16.3 17 16.3V16.5V16.7C17.1923 16.7 17.3632 16.6336 17.4984 16.4984L17.357 16.357ZM17 16.5V16.3H13V16.5V16.7H17V16.5Z" fill="black" mask="url(#path-1-outside-1_10_52)"/>
</svg>
