<svg width="28" height="28" viewBox="0 0 28 28" fill="none" xmlns="http://www.w3.org/2000/svg">
<path d="M14.75 6.25C14.75 4.574 15.928 3 17.625 3C19.322 3 20.5 4.574 20.5 6.25C20.5 7.926 19.323 9.5 17.625 9.5C15.927 9.5 14.75 7.926 14.75 6.25ZM1.25 9.75C1.25 8.074 2.428 6.5 4.125 6.5C5.822 6.5 7 8.074 7 9.75C7 11.426 5.822 13 4.125 13C2.428 13 1.25 11.426 1.25 9.75ZM14 11C12.9068 11 11.8252 11.224 10.822 11.6583C9.81873 12.0926 8.91514 12.7279 8.16698 13.525C7.41882 14.322 6.84195 15.264 6.472 16.2927C6.10205 17.3214 5.94686 18.415 6.016 19.506C6.114 21.08 7.012 22.227 8.191 22.953C9.355 23.669 10.82 24 12.208 24H15.792C17.181 24 18.645 23.669 19.809 22.953C20.989 22.227 21.886 21.08 21.984 19.506C21.9947 19.3387 22 19.17 22 19C22 16.8783 21.1571 14.8434 19.6569 13.3431C18.1566 11.8429 16.1217 11 14 11ZM21 9.75C21 8.074 22.177 6.5 23.875 6.5C25.573 6.5 26.75 8.074 26.75 9.75C26.75 11.426 25.573 13 23.875 13C22.177 13 21 11.426 21 9.75ZM7.5 6.25C7.5 4.574 8.678 3 10.375 3C12.072 3 13.25 4.574 13.25 6.25C13.25 7.926 12.072 9.5 10.375 9.5C8.678 9.5 7.5 7.926 7.5 6.25Z" fill="black"/>
</svg>
