<svg width="24" height="24" viewBox="0 0 24 24" fill="none" xmlns="http://www.w3.org/2000/svg">
<path d="M17.755 14C18.3514 14.0005 18.9232 14.2378 19.3447 14.6597C19.7662 15.0816 20.003 15.6536 20.003 16.25V16.825C20.003 17.719 19.683 18.584 19.103 19.263C17.533 21.096 15.146 22.001 12 22.001C8.854 22.001 6.468 21.096 4.902 19.261C4.32261 18.5824 4.00421 17.7193 4.004 16.827V16.249C4.00426 15.6526 4.2413 15.0807 4.66301 14.659C5.08472 14.2373 5.65661 14.0003 6.253 14H17.755ZM17.755 15.5H6.252C6.05309 15.5 5.86232 15.579 5.72167 15.7197C5.58102 15.8603 5.502 16.0511 5.502 16.25V16.827C5.502 17.362 5.694 17.88 6.042 18.287C7.295 19.756 9.262 20.501 11.999 20.501C14.738 20.501 16.705 19.756 17.962 18.288C18.3106 17.8803 18.5022 17.3614 18.502 16.825V16.249C18.5017 16.0506 18.4229 15.8604 18.2827 15.72C18.1425 15.5796 17.9534 15.5005 17.755 15.5ZM12 2.005C12.6566 2.005 13.3068 2.13433 13.9134 2.3856C14.52 2.63688 15.0712 3.00517 15.5355 3.46947C15.9998 3.93376 16.3681 4.48495 16.6194 5.09158C16.8707 5.69821 17 6.34839 17 7.005C17 7.66161 16.8707 8.31179 16.6194 8.91842C16.3681 9.52504 15.9998 10.0762 15.5355 10.5405C15.0712 11.0048 14.52 11.3731 13.9134 11.6244C13.3068 11.8757 12.6566 12.005 12 12.005C10.6739 12.005 9.40215 11.4782 8.46446 10.5405C7.52678 9.60285 7 8.33108 7 7.005C7 5.67892 7.52678 4.40715 8.46446 3.46947C9.40215 2.53178 10.6739 2.005 12 2.005ZM12 3.505C11.5404 3.505 11.0852 3.59553 10.6606 3.77142C10.236 3.94731 9.85013 4.20512 9.52512 4.53013C9.20012 4.85513 8.94231 5.24097 8.76642 5.66561C8.59053 6.09025 8.5 6.54537 8.5 7.005C8.5 7.46463 8.59053 7.91975 8.76642 8.34439C8.94231 8.76903 9.20012 9.15487 9.52512 9.47987C9.85013 9.80488 10.236 10.0627 10.6606 10.2386C11.0852 10.4145 11.5404 10.505 12 10.505C12.9283 10.505 13.8185 10.1363 14.4749 9.47987C15.1312 8.8235 15.5 7.93326 15.5 7.005C15.5 6.07674 15.1312 5.1865 14.4749 4.53013C13.8185 3.87375 12.9283 3.505 12 3.505Z" fill="black"/>
</svg>
