<svg width="24" height="24" viewBox="0 0 24 24" fill="none" xmlns="http://www.w3.org/2000/svg">
<path d="M6 7.5C6 7.23478 6.10536 6.98043 6.29289 6.79289C6.48043 6.60536 6.73478 6.5 7 6.5C7.26522 6.5 7.51957 6.60536 7.70711 6.79289C7.89464 6.98043 8 7.23478 8 7.5C8 7.76522 7.89464 8.01957 7.70711 8.20711C7.51957 8.39464 7.26522 8.5 7 8.5C6.73478 8.5 6.48043 8.39464 6.29289 8.20711C6.10536 8.01957 6 7.76522 6 7.5ZM9 7.5C9 7.23478 9.10536 6.98043 9.29289 6.79289C9.48043 6.60536 9.73478 6.5 10 6.5C10.2652 6.5 10.5196 6.60536 10.7071 6.79289C10.8946 6.98043 11 7.23478 11 7.5C11 7.76522 10.8946 8.01957 10.7071 8.20711C10.5196 8.39464 10.2652 8.5 10 8.5C9.73478 8.5 9.48043 8.39464 9.29289 8.20711C9.10536 8.01957 9 7.76522 9 7.5ZM7 13.5C6.73478 13.5 6.48043 13.6054 6.29289 13.7929C6.10536 13.9804 6 14.2348 6 14.5C6 14.7652 6.10536 15.0196 6.29289 15.2071C6.48043 15.3946 6.73478 15.5 7 15.5C7.26522 15.5 7.51957 15.3946 7.70711 15.2071C7.89464 15.0196 8 14.7652 8 14.5C8 14.2348 7.89464 13.9804 7.70711 13.7929C7.51957 13.6054 7.26522 13.5 7 13.5ZM10 13.5C9.73478 13.5 9.48043 13.6054 9.29289 13.7929C9.10536 13.9804 9 14.2348 9 14.5C9 14.7652 9.10536 15.0196 9.29289 15.2071C9.48043 15.3946 9.73478 15.5 10 15.5C10.2652 15.5 10.5196 15.3946 10.7071 15.2071C10.8946 15.0196 11 14.7652 11 14.5C11 14.2348 10.8946 13.9804 10.7071 13.7929C10.5196 13.6054 10.2652 13.5 10 13.5Z" fill="black"/>
<path fill-rule="evenodd" clip-rule="evenodd" d="M5.947 3.25C5.21766 3.25 4.51818 3.53973 4.00246 4.05546C3.48673 4.57118 3.197 5.27065 3.197 6V9C3.197 9.788 3.529 10.499 4.06 11C3.78706 11.2567 3.56965 11.5666 3.42122 11.9106C3.27278 12.2546 3.19647 12.6253 3.197 13V16C3.197 16.7293 3.48673 17.4288 4.00246 17.9445C4.51818 18.4603 5.21766 18.75 5.947 18.75H11.25V20.25H5C4.80109 20.25 4.61032 20.329 4.46967 20.4697C4.32902 20.6103 4.25 20.8011 4.25 21C4.25 21.1989 4.32902 21.3897 4.46967 21.5303C4.61032 21.671 4.80109 21.75 5 21.75H19C19.1989 21.75 19.3897 21.671 19.5303 21.5303C19.671 21.3897 19.75 21.1989 19.75 21C19.75 20.8011 19.671 20.6103 19.5303 20.4697C19.3897 20.329 19.1989 20.25 19 20.25H12.75V18.75H17.947C18.3081 18.75 18.6657 18.6789 18.9994 18.5407C19.333 18.4025 19.6362 18.1999 19.8915 17.9445C20.1469 17.6892 20.3495 17.386 20.4877 17.0524C20.6259 16.7187 20.697 16.3611 20.697 16V13C20.697 12.212 20.366 11.501 19.835 11C20.1078 10.7433 20.325 10.4333 20.4732 10.0893C20.6215 9.74533 20.6977 9.37458 20.697 9V6C20.697 5.63886 20.6259 5.28127 20.4877 4.94762C20.3495 4.61398 20.1469 4.31082 19.8915 4.05546C19.6362 3.8001 19.333 3.59753 18.9994 3.45933C18.6657 3.32113 18.3081 3.25 17.947 3.25H5.947ZM5.947 10.25H17.947C18.637 10.25 19.197 9.69 19.197 9V6C19.197 5.31 18.637 4.75 17.947 4.75H5.947C5.257 4.75 4.697 5.31 4.697 6V9C4.697 9.69 5.257 10.25 5.947 10.25ZM5.947 11.75C5.257 11.75 4.697 12.31 4.697 13V16C4.697 16.69 5.257 17.25 5.947 17.25H17.947C18.637 17.25 19.197 16.69 19.197 16V13C19.197 12.31 18.637 11.75 17.947 11.75H5.947Z" fill="black"/>
</svg>
